<svg xmlns="http://www.w3.org/2000/svg" viewBox="0 0 1372 109" style="max-width:1372px" role="img"><defs><marker id="a" viewBox="0 0 8 8" refX="7" refY="4" markerWidth="7" markerHeight="7" orient="auto"><path d="M0 0 L8 4 L0 8 z" fill="currentColor"/></marker></defs><path d="M194 49 C242 49 242 49 290 49" fill="none" stroke="#9a97a3" stroke-width="1.5" style="color:#9a97a3" marker-end="url(#a)"/><path d="M458 49 C506 49 506 49 554 49" fill="none" stroke="#9a97a3" stroke-width="1.5" style="color:#9a97a3" marker-end="url(#a)"/><path d="M722 49 C770 49 770 49 818 49" fill="none" stroke="#9a97a3" stroke-width="1.5" style="color:#9a97a3" marker-end="url(#a)"/><path d="M986 49 C1034 49 1034 49 1082 49" fill="none" stroke="#9a97a3" stroke-width="1.5" style="color:#9a97a3" marker-end="url(#a)"/><g><rect x="26" y="26" width="168" height="46" rx="7" fill="#ffffff" stroke="#c8862a" stroke-width="1.5"/><text font-family="ui-sans-serif,system-ui,-apple-system,Segoe UI,Helvetica,Arial,sans-serif" font-size="12" font-weight="600" fill="#1a1a1c" x="37" y="46">Establish boundary</text><text font-family="ui-sans-serif,system-ui,-apple-system,Segoe UI,Helvetica,Arial,sans-serif" font-size="10" x="37" y="61" fill="#c8862a">decision</text></g><g><rect x="290" y="26" width="168" height="46" rx="7" fill="#ffffff" stroke="#3f7fbf" stroke-width="1.5"/><text font-family="ui-sans-serif,system-ui,-apple-system,Segoe UI,Helvetica,Arial,sans-serif" font-size="12" font-weight="600" fill="#1a1a1c" x="301" y="46">Discover flows</text><text font-family="ui-sans-serif,system-ui,-apple-system,Segoe UI,Helvetica,Arial,sans-serif" font-size="10" x="301" y="61" fill="#3f7fbf">action</text></g><g><rect x="554" y="26" width="168" height="46" rx="7" fill="#ffffff" stroke="#3f7fbf" stroke-width="1.5"/><text font-family="ui-sans-serif,system-ui,-apple-system,Segoe UI,Helvetica,Arial,sans-serif" font-size="12" font-weight="600" fill="#1a1a1c" x="565" y="46">Author evidence references</text><text font-family="ui-sans-serif,system-ui,-apple-system,Segoe UI,Helvetica,Arial,sans-serif" font-size="10" x="565" y="61" fill="#3f7fbf">action</text></g><g><rect x="818" y="26" width="168" height="46" rx="7" fill="#ffffff" stroke="#2f9070" stroke-width="1.5"/><text font-family="ui-sans-serif,system-ui,-apple-system,Segoe UI,Helvetica,Arial,sans-serif" font-size="12" font-weight="600" fill="#1a1a1c" x="829" y="46">Observe the repository</text><text font-family="ui-sans-serif,system-ui,-apple-system,Segoe UI,Helvetica,Arial,sans-serif" font-size="10" x="829" y="61" fill="#2f9070">interaction</text></g><text font-family="ui-monospace,SFMono-Regular,Menlo,Consolas,monospace" font-size="10" x="820" y="84" fill="#c05c4a">interacts_with → external.repository</text><g><rect x="1082" y="26" width="168" height="46" rx="7" fill="#ffffff" stroke="#3f7fbf" stroke-width="1.5"/><text font-family="ui-sans-serif,system-ui,-apple-system,Segoe UI,Helvetica,Arial,sans-serif" font-size="12" font-weight="600" fill="#1a1a1c" x="1093" y="46">Write assertions</text><text font-family="ui-sans-serif,system-ui,-apple-system,Segoe UI,Helvetica,Arial,sans-serif" font-size="10" x="1093" y="61" fill="#3f7fbf">action</text></g><text font-family="ui-monospace,SFMono-Regular,Menlo,Consolas,monospace" font-size="10" x="1084" y="84" fill="#2f9070">transitions_to → state.model.established</text></svg>